<svg width="30" height="28" viewBox="0 0 30 28" fill="none" xmlns="http://www.w3.org/2000/svg">
<g clip-path="url(#clip0_112_565)">
<path d="M13.7305 27.9806C11.1469 27.9806 9.04297 26.0196 9.04297 23.6086C9.04297 23.126 9.46297 22.7343 9.98047 22.7343C10.498 22.7343 10.918 23.126 10.918 23.6086C10.918 25.0556 12.1805 26.2318 13.7305 26.2318C15.2805 26.2318 16.543 25.0556 16.543 23.6086C16.543 23.126 16.963 22.7343 17.4805 22.7343C17.998 22.7343 18.418 23.126 18.418 23.6086C18.418 26.0196 16.3143 27.9806 13.7305 27.9806Z" fill="#27397B"/>
<path d="M24.0429 24.483H3.41789C2.21169 24.483 1.23047 23.5678 1.23047 22.4428C1.23047 21.8457 1.50925 21.2805 1.99539 20.8921C2.02675 20.8665 2.06039 20.8433 2.09541 20.8221C3.93036 19.3287 4.98047 17.18 4.98047 14.9112V11.6585C4.98047 7.15844 8.90671 3.49756 13.7304 3.49756C13.9304 3.49756 14.1467 3.50097 14.3468 3.53257C14.8579 3.61177 15.203 4.06305 15.1179 4.53868C15.033 5.0143 14.5404 5.33622 14.0392 5.25681C13.9391 5.24165 13.8293 5.24635 13.7304 5.24635C9.94057 5.24635 6.85547 8.1225 6.85547 11.6585V14.9112C6.85547 17.728 5.53162 20.3933 3.22678 22.2223C3.20801 22.2364 3.19176 22.2492 3.17162 22.262C3.13797 22.3017 3.10547 22.3623 3.10547 22.4428C3.10547 22.6012 3.24806 22.7342 3.41789 22.7342H24.0429C24.213 22.7342 24.3555 22.6012 24.3555 22.4428C24.3555 22.3611 24.323 22.3017 24.288 22.262C24.2693 22.2492 24.253 22.2364 24.2342 22.2223C21.928 20.392 20.6055 17.728 20.6055 14.9112V13.6406C20.6055 13.1579 21.0255 12.7662 21.543 12.7662C22.0605 12.7662 22.4805 13.1579 22.4805 13.6406V14.9112C22.4805 17.1813 23.5318 19.331 25.3693 20.8258C25.4029 20.8467 25.4354 20.8689 25.4654 20.8934C25.9518 21.2805 26.2305 21.8457 26.2305 22.4428C26.2305 23.5678 25.2493 24.483 24.0429 24.483Z" fill="#27397B"/>
<path d="M22.4805 11.6585C19.0343 11.6585 16.2305 9.04366 16.2305 5.82936C16.2305 2.61507 19.0343 0 22.4805 0C25.9268 0 28.7304 2.61507 28.7304 5.82936C28.7304 9.04366 25.9268 11.6585 22.4805 11.6585ZM22.4805 1.74879C20.0679 1.74879 18.1055 3.57912 18.1055 5.82936C18.1055 8.07939 20.0679 9.90973 22.4805 9.90973C24.893 9.90973 26.8554 8.07939 26.8554 5.82936C26.8554 3.57912 24.893 1.74879 22.4805 1.74879Z" fill="#11C9DF"/>
</g>
<defs>
<clipPath id="clip0_112_565">
<rect width="30" height="27.9806" fill="white"/>
</clipPath>
</defs>
</svg>
