<svg width="25" height="25" viewBox="0 0 25 25" fill="none" xmlns="http://www.w3.org/2000/svg">
<path d="M3.75 5C2.375 5 1.25 6.125 1.25 7.5C1.25 8.875 2.375 10 3.75 10C5.125 10 6.25 8.8875 6.25 7.5C6.25 6.1125 5.1375 5 3.75 5ZM12.5 2.5C11.125 2.5 10 3.6125 10 5C10 6.3875 11.125 7.5 12.5 7.5C13.875 7.5 15 6.3875 15 5C15 3.6125 13.8875 2.5 12.5 2.5ZM21.25 0C19.875 0 18.75 1.125 18.75 2.5C18.75 3.875 19.875 5 21.25 5C22.625 5 23.75 3.8875 23.75 2.5C23.75 1.1125 22.6375 0 21.25 0ZM1.875 11.25C0.8375 11.25 0 12.0875 0 13.125V18.75H1.25V25H6.25V18.75H7.5V13.125C7.5 12.0875 6.6625 11.25 5.625 11.25H1.875ZM10.625 8.75C9.5875 8.75 8.75 9.5875 8.75 10.625V16.25H10V22.5H15V16.25H16.25V10.625C16.25 9.5875 15.4125 8.75 14.375 8.75H10.625ZM19.375 6.25C18.3375 6.25 17.5 7.0875 17.5 8.125V13.75H18.75V20H23.75V13.75H25V8.125C25 7.0875 24.1625 6.25 23.125 6.25H19.375Z" fill="#B1B1B1"/>
</svg>
