<svg width="23" height="25" viewBox="0 0 23 25" fill="none" xmlns="http://www.w3.org/2000/svg">
<path fill-rule="evenodd" clip-rule="evenodd" d="M19.2037 2.15135C19.2202 2.1666 19.2369 2.1819 19.2536 2.19726L20.4696 3.31514C20.4862 3.3305 20.5029 3.3458 20.5195 3.36105C21.192 3.97934 21.7716 4.51205 22.1795 5.00241C22.6167 5.52795 22.9578 6.12025 22.9964 6.87074C23.0351 7.62123 22.7569 8.24684 22.3761 8.81636C22.0208 9.34777 21.4993 9.93972 20.894 10.6267L10.529 22.3921C10.4958 22.4297 10.463 22.467 10.4306 22.5038C9.85992 23.1528 9.40854 23.6659 8.81042 23.9865C8.21231 24.3069 7.54236 24.3943 6.6953 24.505C6.64724 24.5113 6.5986 24.5177 6.54937 24.5241L4.1684 24.8373C3.49539 24.9259 2.88683 25.0059 2.39092 24.9997C1.85003 24.9928 1.26115 24.8849 0.766858 24.4306C0.27257 23.9762 0.105696 23.3893 0.042226 22.8405C-0.0159806 22.3374 -0.00191117 21.7106 0.0136585 21.0177L0.0684468 18.566C0.0695862 18.5153 0.0706579 18.4652 0.0717296 18.4158C0.0904761 17.5437 0.105316 16.8538 0.354447 16.2126C0.603592 15.5712 1.05584 15.0588 1.62764 14.4109C1.66009 14.3741 1.69291 14.3369 1.72611 14.2992L12.0462 2.58495C12.0612 2.56788 12.0762 2.55088 12.0912 2.53392C12.6964 1.84683 13.2178 1.25483 13.6979 0.838136C14.2124 0.391556 14.7921 0.0431864 15.5268 0.00366796C16.2615 -0.0358435 16.8739 0.248395 17.4315 0.637313C17.9517 1.00021 18.5312 1.53299 19.2037 2.15135ZM16.2802 2.35943C15.9114 2.10209 15.7439 2.08024 15.6341 2.08614C15.5244 2.09205 15.3602 2.13173 15.0198 2.42723C14.6568 2.7423 14.2266 3.22732 13.5636 3.97993L3.24349 15.6943C2.5264 16.5082 2.3488 16.7323 2.25187 16.9818C2.15493 17.2313 2.13377 17.5189 2.1093 18.6136L2.05603 20.9971C2.03852 21.7805 2.0303 22.2568 2.0695 22.5957C2.08764 22.7526 2.11152 22.8303 2.12559 22.8646C2.12876 22.8722 2.13122 22.8772 2.13275 22.8802C2.1357 22.8814 2.14081 22.8834 2.14866 22.8857C2.18353 22.8965 2.26167 22.9126 2.41626 22.9146C2.7503 22.9187 3.21315 22.8604 3.97396 22.7603L6.28871 22.4559C7.35191 22.3161 7.62958 22.2643 7.86228 22.1397C8.095 22.015 8.2945 21.811 9.01159 20.9971L19.3316 9.28277C19.9947 8.53015 20.4217 8.04217 20.6903 7.64035C20.9422 7.26351 20.9636 7.09249 20.9579 6.9804C20.9521 6.8683 20.9133 6.70051 20.6239 6.35278C20.3155 5.98199 19.8407 5.54253 19.104 4.8652L17.888 3.74732C17.1512 3.07001 16.6736 2.63383 16.2802 2.35943Z" fill="#B1B1B1"/>
</svg>
