<svg width="25" height="23" viewBox="0 0 25 23" fill="none" xmlns="http://www.w3.org/2000/svg">
<path fill-rule="evenodd" clip-rule="evenodd" d="M8.08497 0.417897C6.94068 -0.146756 5.55748 -0.138584 4.40651 0.438674C3.90599 0.689706 3.45943 1.10106 2.88184 1.63309L2.67136 1.8268C1.78994 2.6374 1.20685 3.17364 0.789152 3.84635C-0.123655 5.31646 -0.258021 7.34831 0.456292 8.89161C0.783041 9.59755 1.2426 10.1255 1.93084 10.9162L2.02536 11.0248C3.43327 12.6428 5.20563 14.6796 7.20067 16.5151C9.06832 18.2334 10.9965 19.6512 12.6761 20.8862L13.1346 21.2236C13.994 21.8568 14.5679 22.2796 15.3351 22.5802C17.0128 23.2374 19.2212 23.1137 20.8191 22.274C21.5504 21.8897 22.1332 21.3533 23.0143 20.5424L23.2248 20.3487C23.8032 19.8173 24.2502 19.4065 24.5232 18.946C25.1507 17.8871 25.1595 16.6146 24.5457 15.5618C24.2788 15.1041 23.8369 14.698 23.2661 14.1735L21.8875 12.9053C21.8293 12.8516 21.7822 12.8084 21.7362 12.769C20.6307 11.8212 18.9907 11.6196 17.6337 12.263C17.5772 12.2898 17.5178 12.3205 17.4447 12.358L17.4315 12.3649C17.3122 12.4263 17.2728 12.4466 17.2378 12.4632C16.3151 12.9048 15.2096 12.8413 14.3678 12.2995C14.336 12.2791 14.3 12.2545 14.1918 12.18L14.0116 12.0562C13.8404 11.9385 13.7664 11.8875 13.6944 11.8359C13.1126 11.4182 12.5889 10.9364 12.1349 10.4011C12.0788 10.335 12.0234 10.2668 11.8954 10.1092L11.7608 9.94355C11.6799 9.84395 11.6532 9.81097 11.631 9.78167C11.0421 9.00722 10.9731 7.99002 11.453 7.14124C11.4712 7.10912 11.4932 7.07275 11.5599 6.96306L11.5679 6.94987C11.6087 6.88286 11.6416 6.82889 11.6707 6.7769C12.3701 5.52859 12.1509 4.01972 11.1207 3.00265C11.0778 2.9603 11.0299 2.91628 10.9716 2.86263L9.59411 1.59525C9.02393 1.07001 8.58256 0.663435 8.08497 0.417897ZM5.40026 2.14065C5.92391 1.87801 6.55231 1.8747 7.07143 2.13086C7.16414 2.17662 7.26467 2.24447 7.43488 2.38695C7.60527 2.5296 7.84102 2.74316 8.20438 3.07745L9.46054 4.23312C9.53586 4.30242 9.5549 4.32015 9.56954 4.33459C9.99683 4.75644 10.0887 5.38328 9.79747 5.90301C9.7875 5.92081 9.77421 5.94294 9.72158 6.02942L9.7135 6.04271C9.65796 6.13396 9.61878 6.19835 9.5835 6.26074C8.73996 7.75252 8.86042 9.54231 9.89753 10.9063C9.94085 10.9633 9.98828 11.0217 10.0554 11.1043L10.2076 11.2917C10.3261 11.4376 10.3949 11.5222 10.4658 11.6059C11.0244 12.2646 11.6689 12.8575 12.3849 13.3714C12.4757 13.4366 12.5683 13.5004 12.7266 13.6092L12.9289 13.7481L12.93 13.7489C13.0198 13.8107 13.0833 13.8544 13.1453 13.8943C14.6279 14.8484 16.5733 14.9592 18.1948 14.1832C18.2626 14.1507 18.3337 14.1141 18.4329 14.0631L18.4462 14.0562C18.5403 14.0078 18.5643 13.9955 18.5836 13.9863C19.1486 13.7185 19.83 13.8029 20.2884 14.196C20.3041 14.2095 20.3234 14.227 20.3987 14.2963L21.655 15.452C22.0183 15.7863 22.2504 16.0031 22.4054 16.1599C22.5604 16.3165 22.6341 16.409 22.6839 16.4943C22.9622 16.9718 22.9586 17.55 22.6732 18.0317C22.622 18.118 22.5469 18.2115 22.3898 18.37C22.2326 18.5285 21.9975 18.7482 21.6295 19.0867C20.6164 20.0188 20.2405 20.3533 19.7883 20.5911C18.7661 21.1283 17.2518 21.2126 16.1803 20.7929C15.7032 20.606 15.35 20.355 14.3779 19.6391C12.6529 18.3686 10.6384 16.7775 8.70103 14.9951C6.76364 13.2126 5.03412 11.3593 3.65324 9.77239C2.875 8.87801 2.6022 8.55307 2.39904 8.1141C1.94275 7.12829 2.03448 5.73518 2.61837 4.7948C2.87673 4.37869 3.24044 4.03297 4.25366 3.10081C4.62155 2.76235 4.86026 2.54601 5.03266 2.40135C5.2049 2.25684 5.30659 2.18763 5.40026 2.14065Z" fill="#B1B1B1"/>
</svg>
