<svg width="27" height="27" viewBox="0 0 27 27" fill="none" xmlns="http://www.w3.org/2000/svg">
<path d="M1.13464 0C0.507997 0 7.46237e-07 0.507996 7.46237e-07 1.13464V17.7046C-2.75338e-05 19.5775 -4.98146e-05 21.0976 0.16103 22.2957C0.328835 23.5439 0.689972 24.6109 1.53958 25.4605C2.38917 26.3101 3.4561 26.6712 4.70431 26.8389C5.90234 27.0001 7.42247 27.0001 9.29524 27H25.8653C26.492 27 27 26.492 27 25.8654C27 25.2387 26.492 24.7307 25.8653 24.7307H9.37822C7.40306 24.7307 6.03592 24.7283 5.00669 24.5899C4.01016 24.456 3.50189 24.2135 3.14419 23.8558C2.78649 23.4982 2.54404 22.9899 2.41007 21.9934C2.27169 20.9641 2.26928 19.597 2.26928 17.6219V1.13464C2.26928 0.507996 1.76128 0 1.13464 0Z" fill="#B1B1B1"/>
</svg>
