<svg width="40" height="40" viewBox="0 0 40 40" fill="none" xmlns="http://www.w3.org/2000/svg">
<path fill-rule="evenodd" clip-rule="evenodd" d="M8.91846 1.33096e-07C7.74696 -0.000202147 6.58689 0.230445 5.50456 0.67876C4.42224 1.12708 3.43886 1.78427 2.61062 2.61279C1.78238 3.44132 1.12553 4.42492 0.677583 5.50741C0.229641 6.58989 -0.000605192 7.75003 1.19464e-06 8.92154V31.0815C-0.000403121 32.2528 0.230004 33.4127 0.678055 34.495C1.12611 35.5772 1.78302 36.5605 2.61126 37.3887C3.43949 38.217 4.42282 38.8739 5.50504 39.3219C6.58726 39.77 7.74716 40.0004 8.91846 40H31.0815C32.2528 40.0004 33.4127 39.77 34.495 39.3219C35.5772 38.8739 36.5605 38.217 37.3887 37.3887C38.217 36.5605 38.8739 35.5772 39.3219 34.495C39.77 33.4127 40.0004 32.2528 40 31.0815V8.92308C40.0008 7.75144 39.7707 6.59114 39.3229 5.50847C38.875 4.42581 38.2182 3.44202 37.3899 2.61334C36.5617 1.78465 35.5782 1.12732 34.4958 0.678907C33.4134 0.230495 32.2532 -0.000202291 31.0815 1.33096e-07H8.91846ZM8.91846 1.53846H31.0815C32.0521 1.53439 33.0138 1.7226 33.9113 2.09223C34.8087 2.46186 35.624 3.00558 36.3102 3.69202C36.9963 4.37846 37.5397 5.194 37.909 6.09158C38.2782 6.98916 38.466 7.95098 38.4615 8.92154V31.0815C38.466 32.0519 38.2782 33.0136 37.9089 33.911C37.5396 34.8084 36.9962 35.6238 36.31 36.31C35.6238 36.9962 34.8084 37.5396 33.911 37.9089C33.0136 38.2782 32.0519 38.466 31.0815 38.4615H8.91846C7.94805 38.466 6.98637 38.2782 6.08897 37.9089C5.19156 37.5396 4.37621 36.9962 3.69002 36.31C3.00383 35.6238 2.4604 34.8084 2.0911 33.911C1.72181 33.0136 1.53398 32.0519 1.53846 31.0815V8.92308C1.53378 7.95239 1.72144 6.9904 2.0906 6.09265C2.45977 5.19489 3.00312 4.37916 3.68929 3.69256C4.37546 3.00596 5.19085 2.4621 6.08838 2.09237C6.9859 1.72265 7.94778 1.53439 8.91846 1.53846ZM23.5385 12.3077L15.3846 20L23.5385 27.6923L24.6154 26.6769L17.5385 20L24.6154 13.3231L23.5385 12.3077Z" fill="#27397B"/>
</svg>
